<svg xmlns="http://www.w3.org/2000/svg" width="36" height="36" fill="none" viewBox="0 0 36 36"><g clip-path="url(#clip0_7292_2437)"><path fill="#fff" d="M36 36H0L0 0H36V36Z"/><path fill="url(#paint0_linear_7292_2437)" fill-opacity=".25" d="M36 36H0L0 0H36V36Z"/><path fill="url(#paint1_radial_7292_2437)" d="M7.00002 11.3571L10.1429 9.78571L15.6429 12.9286H25.0715L25.0714 26.2143L24.2857 27H9.35714C8.05533 27 7 25.9447 7 24.6428L7.00002 11.3571Z"/><path fill="url(#paint2_linear_7292_2437)" fill-rule="evenodd" d="M15.6122 10.1206C16.0151 10.4136 16.5005 10.5714 16.9986 10.5714L26.6429 10.5714C27.9447 10.5714 29 11.6268 29 12.9286V24.6429C29 25.9447 27.9447 27 26.6429 27H24.2857V15.6786C24.2857 14.5937 23.4063 13.7143 22.3214 13.7143H14.0714C13.5614 13.7143 13.0652 13.5489 12.6571 13.2429L10.7714 11.8286C10.3634 11.5226 9.86716 11.3571 9.35714 11.3571L7 11.3571C7 10.0553 8.05533 9 9.35714 9H13.3049C13.8031 9 14.2884 9.15783 14.6913 9.45084L15.6122 10.1206Z" clip-rule="evenodd"/></g><defs><linearGradient id="paint0_linear_7292_2437" x1="37.104" x2="19.788" y1="46.167" y2="-1.939" gradientUnits="userSpaceOnUse"><stop stop-color="#ED91DC"/><stop offset="1" stop-color="#fff" stop-opacity="0"/></linearGradient><radialGradient id="paint1_radial_7292_2437" cx="0" cy="0" r="1" gradientTransform="translate(26.5851 -2.04019) scale(33.721 35.6429)" gradientUnits="userSpaceOnUse"><stop offset=".556" stop-color="#6D4AFF"/><stop offset="1" stop-color="#FF50C3"/></radialGradient><linearGradient id="paint2_linear_7292_2437" x1="6.71" x2="33.866" y1="-.394" y2="29.792" gradientUnits="userSpaceOnUse"><stop stop-color="#7341FF"/><stop offset=".359" stop-color="#B487FF"/><stop offset="1" stop-color="#FFC8FF"/></linearGradient><clipPath id="clip0_7292_2437"><rect width="36" height="36" fill="#fff"/></clipPath></defs></svg>