<svg xmlns="http://www.w3.org/2000/svg" width="56" height="56" fill="none" viewBox="0 0 56 56"><g clip-path="url(#clip0_61822_53754)"><g filter="url(#filter0_f_61822_53754)" opacity=".8"><ellipse cx="27.607" cy="44.715" fill="#6D4AFF" fill-opacity=".5" rx="20.429" ry="1.571"/></g><g filter="url(#filter1_ii_61822_53754)"><path fill="url(#paint0_linear_61822_53754)" d="M6.78564 21.5356L26.7241 7.99268C27.257 7.6307 27.9568 7.6308 28.4897 7.99268L48.4282 21.5356L28.4897 35.0786C27.9568 35.4405 27.2571 35.4406 26.7241 35.0786L6.78564 21.5356Z"/></g><path fill="#FDF9FF" d="M11.8928 15.2501C11.8928 14.3823 12.5964 13.6787 13.4643 13.6787H41.75C42.6178 13.6787 43.3214 14.3823 43.3214 15.2501V40.0001H11.8928V15.2501Z"/><g filter="url(#filter2_ii_61822_53754)"><path fill="url(#paint1_linear_61822_53754)" d="M6.78564 21.5356L26.7241 35.0788C27.2571 35.4408 27.9571 35.4408 28.49 35.0788L48.4285 21.5356V42.3571C48.4285 43.6589 47.3732 44.7142 46.0714 44.7142H9.14279C7.84098 44.7142 6.78564 43.6589 6.78564 42.3571V21.5356Z"/></g><path fill="url(#paint2_linear_61822_53754)" d="M27.7538 30.1074C23.8532 30.1074 21.6118 27.9393 21.6072 24.2101C21.6118 20.5403 23.8715 18.1074 27.8134 18.1074C31.4574 18.1074 33.6117 20.3531 33.6072 23.5985C33.6117 25.8396 32.8554 27.4281 30.8753 27.5376C29.8119 27.6152 29.3902 27.1862 29.2894 26.5563H29.2344C29.0189 27.1086 28.0839 27.5422 27.0434 27.4828C25.5949 27.4053 24.3665 26.3052 24.3574 24.1553C24.3665 22.0374 25.6866 21.0378 26.9105 20.8598C27.9418 20.7046 28.9135 21.0835 29.0693 21.4851H29.1335V20.9739H30.5682V25.4288C30.5728 25.8533 30.7653 26.0907 31.0816 26.0907C31.7141 26.0907 32.0441 25.2782 32.0395 23.4935C32.0441 20.627 29.9952 19.5772 27.7905 19.5772C24.7424 19.5772 23.2481 21.5445 23.239 24.1553C23.2481 27.0401 24.8707 28.6194 27.8593 28.6194C28.9135 28.6194 29.9677 28.3547 30.4582 28.1538L30.912 29.4775C30.339 29.8016 29.0602 30.1074 27.7538 30.1074ZM27.543 25.9811C28.666 25.9811 29.0602 25.3284 29.0464 24.0869C29.0418 22.9914 28.6935 22.3798 27.5338 22.3798C26.5163 22.3798 25.9433 23.0599 25.9387 24.1006C25.9433 25.0682 26.3467 25.9811 27.543 25.9811Z"/></g><defs><filter id="filter0_f_61822_53754" width="50.286" height="12.572" x="2.464" y="38.429" color-interpolation-filters="sRGB" filterUnits="userSpaceOnUse"><feFlood flood-opacity="0" result="BackgroundImageFix"/><feBlend in="SourceGraphic" in2="BackgroundImageFix" mode="normal" result="shape"/><feGaussianBlur result="effect1_foregroundBlur_61822_53754" stdDeviation="2.357"/></filter><filter id="filter1_ii_61822_53754" width="42.428" height="29.593" x="6" y="6.543" color-interpolation-filters="sRGB" filterUnits="userSpaceOnUse"><feFlood flood-opacity="0" result="BackgroundImageFix"/><feBlend in="SourceGraphic" in2="BackgroundImageFix" mode="normal" result="shape"/><feColorMatrix in="SourceAlpha" result="hardAlpha" type="matrix" values="0 0 0 0 0 0 0 0 0 0 0 0 0 0 0 0 0 0 127 0"/><feOffset dy="-1.179"/><feGaussianBlur stdDeviation=".589"/><feComposite in2="hardAlpha" k2="-1" k3="1" operator="arithmetic"/><feColorMatrix type="matrix" values="0 0 0 0 0.427451 0 0 0 0 0.290196 0 0 0 0 1 0 0 0 0.2 0"/><feBlend in2="shape" mode="normal" result="effect1_innerShadow_61822_53754"/><feColorMatrix in="SourceAlpha" result="hardAlpha" type="matrix" values="0 0 0 0 0 0 0 0 0 0 0 0 0 0 0 0 0 0 127 0"/><feOffset dx="-.786" dy=".786"/><feGaussianBlur stdDeviation=".393"/><feComposite in2="hardAlpha" k2="-1" k3="1" operator="arithmetic"/><feColorMatrix type="matrix" values="0 0 0 0 1 0 0 0 0 1 0 0 0 0 1 0 0 0 0.1 0"/><feBlend in2="effect1_innerShadow_61822_53754" mode="normal" result="effect2_innerShadow_61822_53754"/></filter><filter id="filter2_ii_61822_53754" width="42.428" height="24.75" x="6" y="20.75" color-interpolation-filters="sRGB" filterUnits="userSpaceOnUse"><feFlood flood-opacity="0" result="BackgroundImageFix"/><feBlend in="SourceGraphic" in2="BackgroundImageFix" mode="normal" result="shape"/><feColorMatrix in="SourceAlpha" result="hardAlpha" type="matrix" values="0 0 0 0 0 0 0 0 0 0 0 0 0 0 0 0 0 0 127 0"/><feOffset dy="-.786"/><feGaussianBlur stdDeviation=".589"/><feComposite in2="hardAlpha" k2="-1" k3="1" operator="arithmetic"/><feColorMatrix type="matrix" values="0 0 0 0 0.188235 0 0 0 0 0.705882 0 0 0 0 0.619608 0 0 0 0.2 0"/><feBlend in2="shape" mode="normal" result="effect1_innerShadow_61822_53754"/><feColorMatrix in="SourceAlpha" result="hardAlpha" type="matrix" values="0 0 0 0 0 0 0 0 0 0 0 0 0 0 0 0 0 0 127 0"/><feOffset dx="-1.179" dy=".786"/><feGaussianBlur stdDeviation=".393"/><feComposite in2="hardAlpha" k2="-1" k3="1" operator="arithmetic"/><feColorMatrix type="matrix" values="0 0 0 0 1 0 0 0 0 1 0 0 0 0 1 0 0 0 0.1 0"/><feBlend in2="effect1_innerShadow_61822_53754" mode="normal" result="effect2_innerShadow_61822_53754"/></filter><linearGradient id="paint0_linear_61822_53754" x1="39" x2="24.071" y1="5.036" y2="38.035" gradientUnits="userSpaceOnUse"><stop stop-color="#D783FF"/><stop offset="1" stop-color="#6D4AFF"/></linearGradient><linearGradient id="paint1_linear_61822_53754" x1="48.428" x2="2.464" y1="16.821" y2="51" gradientUnits="userSpaceOnUse"><stop stop-color="#D783FF"/><stop offset="1" stop-color="#6D4AFF"/></linearGradient><linearGradient id="paint2_linear_61822_53754" x1="59.289" x2="-8.972" y1="-14.211" y2="-10.924" gradientUnits="userSpaceOnUse"><stop stop-color="#F7E5FF"/><stop offset="1" stop-color="#D783FF"/></linearGradient><clipPath id="clip0_61822_53754"><rect width="44" height="44" fill="#fff" transform="translate(6 7)"/></clipPath></defs></svg>