<svg xmlns="http://www.w3.org/2000/svg" width="136" height="93" fill="none" viewBox="0 0 136 93"><g clip-path="url(#clip0_1713_14206)"><rect width="134" height="91" x="1" y="1" fill="#1F1F31" rx="5"/><g clip-path="url(#clip1_1713_14206)"><rect width="31" height="91" fill="#191926" transform="translate(1 1)"/><rect width="3" height="3" x="4" y="13.5" fill="#302D45" rx="1.5"/><g clip-path="url(#clip2_1713_14206)" opacity=".3"><rect width="19" height="2" fill="#1C1C2C" transform="translate(10 14)"/><rect width="10.5" height="2" x="10" y="14" fill="#fff" rx="1"/><rect width="2.5" height="2" x="26.5" y="14" fill="#BFB9D8" rx="1"/></g><rect width="3" height="3" x="4" y="19.5" fill="#9EE2E6" opacity=".3" rx="1.5"/><g clip-path="url(#clip3_1713_14206)" opacity=".3"><rect width="19" height="2" fill="#1C1C2C" transform="translate(10 20)"/><rect width="5.5" height="2" x="10" y="20" fill="#fff" rx="1"/><rect width="2.5" height="2" x="26.5" y="20" fill="#BFB9D8" rx="1"/></g><rect width="3" height="3" x="4" y="25.5" fill="#30284A" rx="1.5"/><g clip-path="url(#clip4_1713_14206)" opacity=".3"><rect width="19" height="2" fill="#1C1C2C" transform="translate(10 26)"/><rect width="8" height="2" x="10" y="26" fill="#fff" rx="1"/><rect width="2.5" height="2" x="26.5" y="26" fill="#BFB9D8" rx="1"/></g><rect width="3" height="3" x="4" y="31.5" fill="#D55E7B" opacity=".2" rx="1.5"/><g clip-path="url(#clip5_1713_14206)" opacity=".3"><rect width="19" height="2" fill="#1C1C2C" transform="translate(10 32)"/><rect width="9" height="2" x="10" y="32" fill="#fff" rx="1"/><rect width="2.5" height="2" x="26.5" y="32" fill="#BFB9D8" rx="1"/></g><rect width="3" height="3" x="4" y="37.5" fill="#62626F" rx="1.5"/><g clip-path="url(#clip6_1713_14206)" opacity=".3"><rect width="19" height="2" fill="#1C1C2C" transform="translate(10 38)"/><rect width="5.5" height="2" x="10" y="38" fill="#fff" rx="1"/><rect width="2.5" height="2" x="26.5" y="38" fill="#BFB9D8" rx="1"/></g><rect width="3" height="3" x="4" y="67" fill="#BFB9D8" opacity=".2" rx="1.5"/><g clip-path="url(#clip7_1713_14206)" opacity=".3"><rect width="19" height="2" fill="#1C1C2C" transform="translate(10 67.5)"/><rect width="10.5" height="2" x="10" y="67.5" fill="#fff" rx="1"/></g><rect width="3" height="3" x="4" y="73" fill="#BFB9D8" opacity=".2" rx="1.5"/><g clip-path="url(#clip8_1713_14206)" opacity=".3"><rect width="19" height="2" fill="#1C1C2C" transform="translate(10 73.5)"/><rect width="12.5" height="2" x="10" y="73.5" fill="#fff" rx="1"/></g><rect width="3" height="3" x="4" y="79" fill="#BFB9D8" opacity=".2" rx="1.5"/><g clip-path="url(#clip9_1713_14206)" opacity=".3"><rect width="19" height="2" fill="#1C1C2C" transform="translate(10 79.5)"/><rect width="10.5" height="2" x="10" y="79.5" fill="#fff" rx="1"/></g><rect width="3" height="3" x="4" y="85" fill="#BFB9D8" opacity=".2" rx="1.5"/><g clip-path="url(#clip10_1713_14206)" opacity=".3"><rect width="19" height="2" fill="#1C1C2C" transform="translate(10 85.5)"/><rect width="8" height="2" x="10" y="85.5" fill="#fff" rx="1"/></g><path fill="url(#paint0_radial_1713_14206)" d="M5.36375 4.29549C5.52877 4.13232 5.61128 4.05073 5.70642 4.02017C5.79011 3.99328 5.88026 3.99328 5.96395 4.02017C6.0591 4.05073 6.14161 4.13232 6.30662 4.29549L7.54414 5.51917C7.70916 5.68234 7.79167 5.76393 7.82258 5.85801C7.84977 5.94076 7.84977 6.0299 7.82258 6.11266C7.79167 6.20674 7.70916 6.28832 7.54414 6.45149L6.30662 7.67517C6.1416 7.83834 6.0591 7.91993 5.96395 7.9505C5.88026 7.97738 5.79011 7.97738 5.70642 7.9505C5.61128 7.91993 5.52877 7.83834 5.36375 7.67517L4.59767 6.91766C4.26763 6.59131 4.10262 6.42814 4.04079 6.23998C3.9864 6.07447 3.9864 5.89619 4.04079 5.73068C4.10262 5.54252 4.26763 5.37935 4.59767 5.05301L5.36375 4.29549Z"/><g clip-path="url(#clip11_1713_14206)" opacity=".3"><rect width="6.5" height="3" x="9.343" y="4.485" fill="#fff" rx="1.5"/><rect width="5" height="3" x="16.843" y="4.485" fill="#fff" rx="1.5"/></g></g><rect width="45" height="91" fill="#1F1F31" transform="translate(32 1)"/><rect width="45" height="91" fill="#1F1F31" transform="translate(32 1)"/><rect width="58" height="91" fill="#1F1F31" transform="translate(77 1)"/><rect width="13" height="5" x="119" y="4" fill="#B6B6FF" rx="2.5"/><g opacity=".2"><rect width="14" height="4" x="81.5" y="11.5" fill="#fff" rx="2"/><g clip-path="url(#clip12_1713_14206)"><rect width="49.5" height="6" fill="#1C1C2C" transform="translate(81.5 22.5)"/><rect width="11" height="2" x="81.5" y="22.5" fill="#BFB9D8" rx="1"/><rect width="24.5" height="2" x="81.5" y="26.5" fill="#fff" rx="1"/></g><g clip-path="url(#clip13_1713_14206)"><rect width="49.5" height="6" fill="#1C1C2C" transform="translate(81.5 34.5)"/><rect width="9" height="2" x="81.5" y="34.5" fill="#BFB9D8" rx="1"/><rect width="19.5" height="2" x="81.5" y="38.5" fill="#fff" rx="1"/></g><g clip-path="url(#clip14_1713_14206)"><rect width="49.5" height="6" fill="#1C1C2C" transform="translate(81.5 46.5)"/><rect width="14" height="2" x="81.5" y="46.5" fill="#BFB9D8" rx="1"/><rect width="24.5" height="2" x="81.5" y="50.5" fill="#fff" rx="1"/></g><g clip-path="url(#clip15_1713_14206)"><rect width="49.5" height="6" fill="#1C1C2C" transform="translate(81.5 58.5)"/><rect width="9" height="2" x="81.5" y="58.5" fill="#BFB9D8" rx="1"/><rect width="14.5" height="2" x="81.5" y="62.5" fill="#fff" rx="1"/></g></g><rect width="6" height="6" x="36.5" y="12.5" fill="#26333D" rx="1.5"/><g clip-path="url(#clip16_1713_14206)" opacity=".2"><rect width="28" height="6" fill="#1C1C2C" transform="translate(45.5 12.5)"/><rect width="9.5" height="2" x="45.5" y="12.5" fill="#fff" rx="1"/><rect width="19" height="2" x="45.5" y="16.5" fill="#BFB9D8" rx="1"/></g><rect width="6" height="6" x="36.5" y="23.5" fill="#BFB9D8" opacity=".3" rx="1.5"/><g clip-path="url(#clip17_1713_14206)" opacity=".2"><rect width="28" height="6" fill="#1C1C2C" transform="translate(45.5 23.5)"/><rect width="14.5" height="2" x="45.5" y="23.5" fill="#fff" rx="1"/><rect width="24.5" height="2" x="45.5" y="27.5" fill="#BFB9D8" rx="1"/></g><rect width="6" height="6" x="36.5" y="34.5" fill="#3E3537" rx="1.5"/><g clip-path="url(#clip18_1713_14206)" opacity=".2"><rect width="28" height="6" fill="#1C1C2C" transform="translate(45.5 34.5)"/><rect width="11.5" height="2" x="45.5" y="34.5" fill="#fff" rx="1"/><rect width="22.5" height="2" x="45.5" y="38.5" fill="#BFB9D8" rx="1"/></g><rect width="6" height="6" x="36.5" y="45.5" fill="#30284A" rx="1.5"/><g clip-path="url(#clip19_1713_14206)" opacity=".2"><rect width="28" height="6" fill="#1C1C2C" transform="translate(45.5 45.5)"/><rect width="15" height="2" x="45.5" y="45.5" fill="#fff" rx="1"/><rect width="21.5" height="2" x="45.5" y="49.5" fill="#BFB9D8" rx="1"/></g><rect width="6" height="6" x="36.5" y="56.5" fill="#BFB9D8" opacity=".3" rx="1.5"/><g clip-path="url(#clip20_1713_14206)" opacity=".2"><rect width="28" height="6" fill="#1C1C2C" transform="translate(45.5 56.5)"/><rect width="8.5" height="2" x="45.5" y="56.5" fill="#fff" rx="1"/><rect width="19" height="2" x="45.5" y="60.5" fill="#BFB9D8" rx="1"/></g><rect width="6" height="6" x="36.5" y="67.5" fill="#BFB9D8" opacity=".3" rx="1.5"/><g clip-path="url(#clip21_1713_14206)" opacity=".2"><rect width="28" height="6" fill="#1C1C2C" transform="translate(45.5 67.5)"/><rect width="11.5" height="2" x="45.5" y="67.5" fill="#fff" rx="1"/><rect width="22.5" height="2" x="45.5" y="71.5" fill="#BFB9D8" rx="1"/></g><rect width="6" height="6" x="36.5" y="78.5" fill="#30284A" rx="1.5"/><g clip-path="url(#clip22_1713_14206)" opacity=".2"><rect width="28" height="6" fill="#1C1C2C" transform="translate(45.5 78.5)"/><rect width="9.5" height="2" x="45.5" y="78.5" fill="#fff" rx="1"/><rect width="14" height="2" x="45.5" y="82.5" fill="#BFB9D8" rx="1"/></g><rect width="6" height="6" x="36.5" y="89.5" fill="#26333D" rx="1.5"/><g clip-path="url(#clip23_1713_14206)" opacity=".2"><rect width="28" height="6" fill="#1C1C2C" transform="translate(45.5 89.5)"/><rect width="14.5" height="2" x="45.5" y="89.5" fill="#fff" rx="1"/></g><rect width="79.5" height="5" x="36" y="4" fill="#191926" rx="2.5"/></g><rect width="135" height="92" x=".5" y=".5" stroke="#7A7AAD" rx="5.5"/><defs><radialGradient id="paint0_radial_1713_14206" cx="0" cy="0" r="1" gradientTransform="translate(5.08094 7.94011) rotate(-57.8524) scale(3.15103 4.95192)" gradientUnits="userSpaceOnUse"><stop stop-color="#FFD580"/><stop offset=".094" stop-color="#F6C592"/><stop offset=".205" stop-color="#EBB6A2"/><stop offset=".324" stop-color="#DFA5AF"/><stop offset=".429" stop-color="#D397BE"/><stop offset=".534" stop-color="#C486CB"/><stop offset=".649" stop-color="#B578D9"/><stop offset=".771" stop-color="#A166E5"/><stop offset=".891" stop-color="#8B57F2"/><stop offset="1" stop-color="#704CFF"/></radialGradient><clipPath id="clip0_1713_14206"><rect width="134" height="91" x="1" y="1" fill="#fff" rx="5"/></clipPath><clipPath id="clip1_1713_14206"><rect width="31" height="91" fill="#fff" transform="translate(1 1)"/></clipPath><clipPath id="clip2_1713_14206"><rect width="19" height="2" fill="#fff" transform="translate(10 14)"/></clipPath><clipPath id="clip3_1713_14206"><rect width="19" height="2" fill="#fff" transform="translate(10 20)"/></clipPath><clipPath id="clip4_1713_14206"><rect width="19" height="2" fill="#fff" transform="translate(10 26)"/></clipPath><clipPath id="clip5_1713_14206"><rect width="19" height="2" fill="#fff" transform="translate(10 32)"/></clipPath><clipPath id="clip6_1713_14206"><rect width="19" height="2" fill="#fff" transform="translate(10 38)"/></clipPath><clipPath id="clip7_1713_14206"><rect width="19" height="2" fill="#fff" transform="translate(10 67.5)"/></clipPath><clipPath id="clip8_1713_14206"><rect width="19" height="2" fill="#fff" transform="translate(10 73.5)"/></clipPath><clipPath id="clip9_1713_14206"><rect width="19" height="2" fill="#fff" transform="translate(10 79.5)"/></clipPath><clipPath id="clip10_1713_14206"><rect width="19" height="2" fill="#fff" transform="translate(10 85.5)"/></clipPath><clipPath id="clip11_1713_14206"><rect width="28" height="3" fill="#fff" transform="translate(9.34277 4.48535)"/></clipPath><clipPath id="clip12_1713_14206"><rect width="49.5" height="6" fill="#fff" transform="translate(81.5 22.5)"/></clipPath><clipPath id="clip13_1713_14206"><rect width="49.5" height="6" fill="#fff" transform="translate(81.5 34.5)"/></clipPath><clipPath id="clip14_1713_14206"><rect width="49.5" height="6" fill="#fff" transform="translate(81.5 46.5)"/></clipPath><clipPath id="clip15_1713_14206"><rect width="49.5" height="6" fill="#fff" transform="translate(81.5 58.5)"/></clipPath><clipPath id="clip16_1713_14206"><rect width="28" height="6" fill="#fff" transform="translate(45.5 12.5)"/></clipPath><clipPath id="clip17_1713_14206"><rect width="28" height="6" fill="#fff" transform="translate(45.5 23.5)"/></clipPath><clipPath id="clip18_1713_14206"><rect width="28" height="6" fill="#fff" transform="translate(45.5 34.5)"/></clipPath><clipPath id="clip19_1713_14206"><rect width="28" height="6" fill="#fff" transform="translate(45.5 45.5)"/></clipPath><clipPath id="clip20_1713_14206"><rect width="28" height="6" fill="#fff" transform="translate(45.5 56.5)"/></clipPath><clipPath id="clip21_1713_14206"><rect width="28" height="6" fill="#fff" transform="translate(45.5 67.5)"/></clipPath><clipPath id="clip22_1713_14206"><rect width="28" height="6" fill="#fff" transform="translate(45.5 78.5)"/></clipPath><clipPath id="clip23_1713_14206"><rect width="28" height="6" fill="#fff" transform="translate(45.5 89.5)"/></clipPath></defs></svg>