<svg xmlns="http://www.w3.org/2000/svg" width="190" height="190" fill="none" viewBox="0 0 190 190"><ellipse cx="63.66" cy="165.812" fill="url(#paint0_radial_5698_95857)" rx="23.688" ry="11.844"/><g filter="url(#filter0_i_5698_95857)"><path fill="url(#paint1_linear_5698_95857)" fill-rule="evenodd" d="M178.003 46.2772C179.149 47.4389 179.139 49.3092 177.981 50.4588L66.9858 160.592C64.6769 162.883 60.9525 162.883 58.6437 160.592L15.1083 117.395C12.7866 115.091 12.772 111.341 15.0756 109.02L23.4177 100.612C25.7213 98.2908 29.4708 98.2762 31.7924 100.58L58.9221 127.499C61.1186 129.678 64.6228 129.799 66.9644 127.776L168.223 40.3023C169.403 39.2831 171.171 39.3534 172.266 40.4632L178.003 46.2772Z" clip-rule="evenodd"/></g><defs><filter id="filter0_i_5698_95857" width="165.498" height="127.168" x="13.357" y="39.582" color-interpolation-filters="sRGB" filterUnits="userSpaceOnUse"><feFlood flood-opacity="0" result="BackgroundImageFix"/><feBlend in="SourceGraphic" in2="BackgroundImageFix" mode="normal" result="shape"/><feColorMatrix in="SourceAlpha" result="hardAlpha" type="matrix" values="0 0 0 0 0 0 0 0 0 0 0 0 0 0 0 0 0 0 127 0"/><feOffset dy="4.441"/><feGaussianBlur stdDeviation="2.961"/><feComposite in2="hardAlpha" k2="-1" k3="1" operator="arithmetic"/><feColorMatrix type="matrix" values="0 0 0 0 1 0 0 0 0 1 0 0 0 0 1 0 0 0 0.25 0"/><feBlend in2="shape" mode="normal" result="effect1_innerShadow_5698_95857"/></filter><radialGradient id="paint0_radial_5698_95857" cx="0" cy="0" r="1" gradientTransform="translate(63.6602 165.812) scale(23.6875 11.8438)" gradientUnits="userSpaceOnUse"><stop stop-color="#6D4AFF" stop-opacity=".15"/><stop offset="1" stop-color="#6D4AFF" stop-opacity="0"/></radialGradient><linearGradient id="paint1_linear_5698_95857" x1="180.077" x2="68.327" y1="38.491" y2="203.596" gradientUnits="userSpaceOnUse"><stop stop-color="#D783FF"/><stop offset="1" stop-color="#6D4AFF"/></linearGradient></defs></svg>