<svg xmlns="http://www.w3.org/2000/svg" width="72" height="72" fill="none" viewBox="0 0 72 72"><g clip-path="url(#clip0_5642_39726)"><g filter="url(#filter0_f_5642_39726)"><ellipse cx="36" cy="53.5" fill="#1A4B7B" fill-opacity=".2" rx="34" ry="1.5"/></g><g clip-path="url(#clip1_5642_39726)"><rect width="29" height="33.5" x="43.535" y="15" fill="#EEF1F4" rx="1" transform="rotate(15 43.5352 15)"/><rect width="26" height="26" x="44.596" y="16.837" fill="#fff" rx=".5" transform="rotate(15 44.5957 16.8372)"/><rect width="26" height="26" x="44.596" y="16.837" fill="url(#paint0_linear_5642_39726)" fill-opacity=".75" rx=".5" transform="rotate(15 44.5957 16.8372)"/></g><rect width="29.25" height="33.75" x="43.447" y="14.847" stroke="#000" stroke-opacity=".02" stroke-width=".25" rx="1.125" transform="rotate(15 43.4468 14.8469)"/><g clip-path="url(#clip2_5642_39726)"><rect width="29" height="33.5" fill="#EEF1F4" rx="1" transform="matrix(-0.965926 0.258819 0.258819 0.965926 28.0117 15)"/><path fill="#fff" d="M27.0806 17.3201C27.0091 17.0534 26.7349 16.8951 26.4682 16.9666L2.32006 23.437C2.05333 23.5085 1.89504 23.7827 1.96651 24.0494L8.43699 48.1976C8.50846 48.4643 8.78263 48.6226 9.04936 48.5511L33.1975 42.0806C33.4642 42.0092 33.6225 41.735 33.5511 41.4683L27.0806 17.3201Z"/><path fill="url(#paint1_linear_5642_39726)" fill-opacity=".5" d="M27.0806 17.3201C27.0091 17.0534 26.7349 16.8951 26.4682 16.9666L2.32006 23.437C2.05333 23.5085 1.89504 23.7827 1.96651 24.0494L8.43699 48.1976C8.50846 48.4643 8.78263 48.6226 9.04936 48.5511L33.1975 42.0806C33.4642 42.0092 33.6225 41.735 33.5511 41.4683L27.0806 17.3201Z"/></g><rect width="29.25" height="33.75" x=".088" y="-.153" stroke="#000" stroke-opacity=".02" stroke-width=".25" rx="1.125" transform="matrix(-0.965926 0.258819 0.258819 0.965926 28.2251 14.9719)"/><g filter="url(#filter1_d_5642_39726)"><rect width="44" height="50" x="13.773" y="11" fill="#fff" rx="2"/><rect width="44.25" height="50.25" x="13.648" y="10.875" stroke="#000" stroke-opacity=".02" stroke-width=".25" rx="2.125"/><g filter="url(#filter2_ii_5642_39726)"><g clip-path="url(#clip3_5642_39726)"><rect width="40" height="40" x="15.773" y="13" fill="url(#paint2_radial_5642_39726)" rx=".5"/><ellipse cx="67.5" cy="48.5" fill="#BF77FD" opacity=".25" rx="53.5" ry="20.5"/><ellipse cx="16" cy="57.5" fill="#fff" rx="50" ry="20.5"/><ellipse cx="16" cy="57.5" fill="url(#paint3_linear_5642_39726)" rx="50" ry="20.5"/><circle cx="27" cy="22" r="3" fill="#fff"/></g></g></g></g><defs><filter id="filter0_f_5642_39726" width="84" height="19" x="-6" y="44" color-interpolation-filters="sRGB" filterUnits="userSpaceOnUse"><feFlood flood-opacity="0" result="BackgroundImageFix"/><feBlend in="SourceGraphic" in2="BackgroundImageFix" mode="normal" result="shape"/><feGaussianBlur result="effect1_foregroundBlur_5642_39726" stdDeviation="4"/></filter><filter id="filter1_d_5642_39726" width="52.5" height="58.5" x="9.523" y="7.75" color-interpolation-filters="sRGB" filterUnits="userSpaceOnUse"><feFlood flood-opacity="0" result="BackgroundImageFix"/><feColorMatrix in="SourceAlpha" result="hardAlpha" type="matrix" values="0 0 0 0 0 0 0 0 0 0 0 0 0 0 0 0 0 0 127 0"/><feOffset dy="1"/><feGaussianBlur stdDeviation="2"/><feColorMatrix type="matrix" values="0 0 0 0 0 0 0 0 0 0 0 0 0 0 0 0 0 0 0.1 0"/><feBlend in2="BackgroundImageFix" mode="normal" result="effect1_dropShadow_5642_39726"/><feBlend in="SourceGraphic" in2="effect1_dropShadow_5642_39726" mode="normal" result="shape"/></filter><filter id="filter2_ii_5642_39726" width="43" height="46" x="12.773" y="10" color-interpolation-filters="sRGB" filterUnits="userSpaceOnUse"><feFlood flood-opacity="0" result="BackgroundImageFix"/><feBlend in="SourceGraphic" in2="BackgroundImageFix" mode="normal" result="shape"/><feColorMatrix in="SourceAlpha" result="hardAlpha" type="matrix" values="0 0 0 0 0 0 0 0 0 0 0 0 0 0 0 0 0 0 127 0"/><feOffset dy="-3"/><feGaussianBlur stdDeviation="2"/><feComposite in2="hardAlpha" k2="-1" k3="1" operator="arithmetic"/><feColorMatrix type="matrix" values="0 0 0 0 0.172549 0 0 0 0 0.513726 0 0 0 0 0.862745 0 0 0 0.2 0"/><feBlend in2="shape" mode="normal" result="effect1_innerShadow_5642_39726"/><feColorMatrix in="SourceAlpha" result="hardAlpha" type="matrix" values="0 0 0 0 0 0 0 0 0 0 0 0 0 0 0 0 0 0 127 0"/><feOffset dx="-4" dy="3"/><feGaussianBlur stdDeviation="1.5"/><feComposite in2="hardAlpha" k2="-1" k3="1" operator="arithmetic"/><feColorMatrix type="matrix" values="0 0 0 0 1 0 0 0 0 1 0 0 0 0 1 0 0 0 0.2 0"/><feBlend in2="effect1_innerShadow_5642_39726" mode="normal" result="effect2_innerShadow_5642_39726"/></filter><linearGradient id="paint0_linear_5642_39726" x1="70.788" x2="37.735" y1="10.797" y2="23.016" gradientUnits="userSpaceOnUse"><stop stop-color="#D783FF"/><stop offset="1" stop-color="#6D4AFF"/></linearGradient><linearGradient id="paint1_linear_5642_39726" x1=".088" x2="35.177" y1="17.782" y2="21.03" gradientUnits="userSpaceOnUse"><stop stop-color="#FF7FC5"/><stop offset="1" stop-color="#6D4AFF"/></linearGradient><radialGradient id="paint2_radial_5642_39726" cx="0" cy="0" r="1" gradientTransform="matrix(-36.1762 60.3457 -84.2517 -10.3308 65.9957 -3.48241)" gradientUnits="userSpaceOnUse"><stop stop-color="#fff"/><stop offset=".501" stop-color="#BDEFFF"/><stop offset="1" stop-color="#1FA7F3"/></radialGradient><linearGradient id="paint3_linear_5642_39726" x1="16" x2="16" y1="37" y2="56.5" gradientUnits="userSpaceOnUse"><stop stop-color="#AFEDFF"/><stop offset="1" stop-color="#35A9F0"/></linearGradient><clipPath id="clip0_5642_39726"><rect width="72" height="72" fill="#fff"/></clipPath><clipPath id="clip1_5642_39726"><rect width="29" height="33.5" x="43.535" y="15" fill="#fff" rx="1" transform="rotate(15 43.5352 15)"/></clipPath><clipPath id="clip2_5642_39726"><rect width="29" height="33.5" fill="#fff" rx="1" transform="matrix(-0.965926 0.258819 0.258819 0.965926 28.0117 15)"/></clipPath><clipPath id="clip3_5642_39726"><rect width="40" height="40" x="15.773" y="13" fill="#fff" rx=".5"/></clipPath></defs></svg>