<svg xmlns="http://www.w3.org/2000/svg" width="80" height="80" fill="none" viewBox="0 0 80 80"><rect width="80" height="80" fill="url(#paint0_linear_8436_240937)" fill-opacity=".09" rx="20"/><g clip-path="url(#clip0_8436_240937)"><path fill="url(#paint1_linear_8436_240937)" fill-rule="evenodd" d="M30.0652 40.0225C35.703 40.0226 40.4738 43.0586 43.0759 47.7207C44.9186 50.9732 42.425 54.8757 38.739 54.876H21.3913C17.705 54.876 15.2113 50.865 17.0544 47.7207C19.5482 43.1669 24.4272 40.0225 30.0652 40.0225ZM29.9568 25.0605C33.3699 25.0606 36.1365 27.828 36.1365 31.2412C36.1362 34.6542 33.3698 37.4209 29.9568 37.4209C26.5437 37.4209 23.7764 34.6542 23.7761 31.2412C23.7761 27.828 26.5436 25.0605 29.9568 25.0605Z" clip-rule="evenodd"/><g filter="url(#filter0_d_8436_240937)"><path fill="url(#paint2_linear_8436_240937)" d="M48.1031 37.5284C52.0691 37.5284 55.2842 34.2883 55.2842 30.2915C55.2842 26.2947 52.0691 23.0547 48.1031 23.0547C44.1371 23.0547 40.9221 26.2947 40.9221 30.2915C40.9221 34.2883 44.1371 37.5284 48.1031 37.5284Z"/><path fill="url(#paint3_linear_8436_240937)" d="M38.1501 57.9685C33.8666 57.9685 30.969 53.2709 33.1107 49.589C36.0083 44.2565 41.6776 40.5746 48.2287 40.5746C54.7798 40.5746 60.3231 44.1296 63.3467 49.589C65.4884 53.3978 62.5908 57.9685 58.3074 57.9685H38.1501Z"/></g><path fill="url(#paint4_linear_8436_240937)" fill-opacity=".5" d="M26.9251 22.0043L24.9855 21.288L24.0928 20.9573L23.7622 20.0647L23.0458 18.125L22.3295 20.0647L21.9988 20.9573L21.1062 21.288L19.1665 22.0043L21.1062 22.7207L21.9988 23.0513L22.3295 23.944L23.0458 25.8836L23.7622 23.944L24.0928 23.0513L24.9855 22.7207L26.9251 22.0043Z"/><path fill="url(#paint5_linear_8436_240937)" fill-opacity=".5" d="M60.5458 38.2932L59.576 37.935L59.1296 37.7697L58.9643 37.3233L58.6062 36.3535L58.248 37.3233L58.0827 37.7697L57.6363 37.935L56.6665 38.2932L57.6363 38.6513L58.0827 38.8167L58.248 39.263L58.6062 40.2328L58.9643 39.263L59.1296 38.8167L59.576 38.6513L60.5458 38.2932Z"/></g><defs><filter id="filter0_d_8436_240937" width="39.129" height="42.362" x="28.664" y="21.193" color-interpolation-filters="sRGB" filterUnits="userSpaceOnUse"><feFlood flood-opacity="0" result="BackgroundImageFix"/><feColorMatrix in="SourceAlpha" result="hardAlpha" type="matrix" values="0 0 0 0 0 0 0 0 0 0 0 0 0 0 0 0 0 0 127 0"/><feOffset dy="1.862"/><feGaussianBlur stdDeviation="1.862"/><feComposite in2="hardAlpha" operator="out"/><feColorMatrix type="matrix" values="0 0 0 0 0.32317 0 0 0 0 0.155642 0 0 0 0 0.679167 0 0 0 0.1 0"/><feBlend in2="BackgroundImageFix" mode="normal" result="effect1_dropShadow_8436_240937"/><feBlend in="SourceGraphic" in2="effect1_dropShadow_8436_240937" mode="normal" result="shape"/></filter><linearGradient id="paint0_linear_8436_240937" x1="-3.148" x2="99.262" y1="-2.92" y2="34.008" gradientUnits="userSpaceOnUse"><stop stop-color="#ECAAFF"/><stop offset="1" stop-color="#6A48F6"/></linearGradient><linearGradient id="paint1_linear_8436_240937" x1="36.875" x2="30.142" y1="24.896" y2="54.792" gradientUnits="userSpaceOnUse"><stop stop-color="#FAEBFF"/><stop offset="1" stop-color="#EBAAFF"/></linearGradient><linearGradient id="paint2_linear_8436_240937" x1="56.667" x2="32.188" y1="22.812" y2="57.708" gradientUnits="userSpaceOnUse"><stop stop-color="#EBAAFF"/><stop offset="1" stop-color="#A171FA"/></linearGradient><linearGradient id="paint3_linear_8436_240937" x1="56.667" x2="32.188" y1="22.812" y2="57.708" gradientUnits="userSpaceOnUse"><stop stop-color="#EBAAFF"/><stop offset="1" stop-color="#A171FA"/></linearGradient><linearGradient id="paint4_linear_8436_240937" x1="23.068" x2="23.068" y1="18.125" y2="25.862" gradientUnits="userSpaceOnUse"><stop stop-color="#C283FB"/><stop offset="1" stop-color="#CD4EE2"/></linearGradient><linearGradient id="paint5_linear_8436_240937" x1="58.617" x2="58.617" y1="36.353" y2="40.222" gradientUnits="userSpaceOnUse"><stop stop-color="#C283FB"/><stop offset="1" stop-color="#CD4EE2"/></linearGradient><clipPath id="clip0_8436_240937"><rect width="50" height="50" fill="#fff" transform="translate(15 15)"/></clipPath></defs></svg>