<svg xmlns="http://www.w3.org/2000/svg" width="80" height="80" fill="none" viewBox="0 0 80 80"><g clip-path="url(#clip0_3263_56214)"><rect width="80" height="80" fill="url(#paint0_linear_3263_56214)" rx="20"/><g filter="url(#filter0_ddd_3263_56214)"><path fill="url(#paint1_linear_3263_56214)" d="M57.9763 22.6516L42.8573 19.3539C41.3845 18.882 39.8039 18.882 38.3311 19.3539L23.212 22.6516C22.314 22.942 21.0361 23.5077 21.0001 24.4878C20.9995 28.6429 21.0012 35.4755 21.0009 45.26C21.0008 47.653 21.7122 50.0296 23.4482 51.6767C27.6489 55.6622 34.7902 60.1305 40.235 61.9455C40.4864 62.0182 40.7379 62.0182 40.9534 61.9455C46.344 60.1486 52.6395 56.494 56.5511 52.8378C58.299 51.204 59 48.8184 59 46.4257C59 36.4224 59 28.6483 59 24.4878C58.9641 23.5077 58.8744 22.942 57.9763 22.6516Z"/></g><path fill="#fff" d="M35.5586 42.5764V46.0863H38.0223V42.7286C38.0223 42.4019 38.1521 42.0885 38.3832 41.8575C38.6142 41.6265 38.9275 41.4967 39.2542 41.4967H41.7804C42.3641 41.4967 42.942 41.3818 43.4812 41.1584C44.0204 40.935 44.5104 40.6077 44.9231 40.1949C45.3357 39.7822 45.6631 39.2923 45.8864 38.7531C46.1097 38.2138 46.2247 37.6359 46.2246 37.0522C46.2247 36.4686 46.1098 35.8906 45.8865 35.3513C45.6632 34.8121 45.3359 34.3221 44.9232 33.9093C44.5105 33.4966 44.0205 33.1692 43.4813 32.9458C42.9421 32.7224 42.3641 32.6074 41.7804 32.6074H35.5586V36.9949H38.0223V34.926H41.6137C42.1714 34.926 42.7062 35.1475 43.1006 35.5418C43.495 35.9361 43.7166 36.4709 43.7167 37.0286C43.7167 37.5864 43.4951 38.1212 43.1007 38.5156C42.7063 38.91 42.1714 39.1316 41.6137 39.1316H39.0024C38.5501 39.1314 38.1021 39.2204 37.6841 39.3934C37.2661 39.5665 36.8864 39.8203 36.5665 40.1402C36.2467 40.4601 35.993 40.84 35.8201 41.258C35.6471 41.676 35.5583 42.124 35.5586 42.5764Z"/><path fill="#fff" d="M39.2535 41.4971C38.7683 41.497 38.2878 41.5926 37.8395 41.7782C37.3912 41.9639 36.9838 42.2361 36.6407 42.5792C36.2976 42.9223 36.0254 43.3296 35.8398 43.7779C35.6541 44.2262 35.5585 44.7067 35.5586 45.192V46.0867H38.0223V42.7289C38.0223 42.4023 38.152 42.0891 38.3829 41.8581C38.6138 41.6271 38.9269 41.4972 39.2535 41.4971Z"/><circle cx="9" cy="43" r="1" fill="#6D4AFF" opacity=".3"/><circle cx="9" cy="59" r="1" fill="#6D4AFF" opacity=".3"/><circle cx="26" cy="9" r="1" fill="#6D4AFF" opacity=".3"/><circle cx="41" cy="13" r="1" fill="#6D4AFF" opacity=".3"/><circle cx="23" cy="64" r="1" fill="#6D4AFF" opacity=".3"/><circle cx="37" cy="70" r="1" fill="#6D4AFF" opacity=".3"/><circle cx="58" cy="62" r="1" fill="#6D4AFF" opacity=".3"/><circle cx="67" cy="69" r="1" fill="#6D4AFF" opacity=".3"/><circle cx="72" cy="52" r="1" fill="#6D4AFF" opacity=".3"/><circle cx="69" cy="41" r="1" fill="#6D4AFF" opacity=".3"/><circle cx="58" cy="9" r="1" fill="#6D4AFF" opacity=".3"/><circle cx="69" cy="26" r="1" fill="#6D4AFF" opacity=".3"/><circle cx="11" cy="21" r="1" fill="#6D4AFF" opacity=".3"/></g><defs><filter id="filter0_ddd_3263_56214" width="68" height="73.493" x="6" y="14" color-interpolation-filters="sRGB" filterUnits="userSpaceOnUse"><feFlood flood-opacity="0" result="BackgroundImageFix"/><feColorMatrix in="SourceAlpha" result="hardAlpha" type="matrix" values="0 0 0 0 0 0 0 0 0 0 0 0 0 0 0 0 0 0 127 0"/><feOffset dy="2.22"/><feGaussianBlur stdDeviation="1"/><feColorMatrix type="matrix" values="0 0 0 0 0.290196 0 0 0 0 0.176471 0 0 0 0 0.772549 0 0 0 0.04 0"/><feBlend in2="BackgroundImageFix" mode="normal" result="effect1_dropShadow_3263_56214"/><feColorMatrix in="SourceAlpha" result="hardAlpha" type="matrix" values="0 0 0 0 0 0 0 0 0 0 0 0 0 0 0 0 0 0 127 0"/><feOffset dy="10.493"/><feGaussianBlur stdDeviation="7.5"/><feColorMatrix type="matrix" values="0 0 0 0 0.290196 0 0 0 0 0.176471 0 0 0 0 0.772549 0 0 0 0.05 0"/><feBlend in2="effect1_dropShadow_3263_56214" mode="normal" result="effect2_dropShadow_3263_56214"/><feColorMatrix in="SourceAlpha" result="hardAlpha" type="matrix" values="0 0 0 0 0 0 0 0 0 0 0 0 0 0 0 0 0 0 127 0"/><feOffset dy="5"/><feGaussianBlur stdDeviation="5"/><feColorMatrix type="matrix" values="0 0 0 0 0.290196 0 0 0 0 0.176471 0 0 0 0 0.772549 0 0 0 0.05 0"/><feBlend in2="effect2_dropShadow_3263_56214" mode="normal" result="effect3_dropShadow_3263_56214"/><feBlend in="SourceGraphic" in2="effect3_dropShadow_3263_56214" mode="normal" result="shape"/></filter><linearGradient id="paint0_linear_3263_56214" x1="0" x2="90.039" y1="80" y2="66.383" gradientUnits="userSpaceOnUse"><stop stop-color="#EAE4FF"/><stop offset="1" stop-color="#F7F5FF"/></linearGradient><linearGradient id="paint1_linear_3263_56214" x1="55.482" x2="28.511" y1="6.566" y2="66.477" gradientUnits="userSpaceOnUse"><stop stop-color="#EEBEFF"/><stop offset="1" stop-color="#5228FF"/></linearGradient><clipPath id="clip0_3263_56214"><rect width="80" height="80" fill="#fff" rx="20"/></clipPath></defs></svg>