<svg xmlns="http://www.w3.org/2000/svg" width="24" height="16" fill="none" viewBox="0 0 24 16"><path fill="#ED4135" d="M24 3.99683H12V11.9956H24V3.99683Z"/><path fill="#0035AD" d="M24 3.99683H12V6.66308H24V3.99683Z"/><path fill="#6DA544" d="M24 9.32935H12V11.9956H24V9.32935Z"/><mask id="mask0_13761_68383" width="5" height="4" x="14" y="6" maskUnits="userSpaceOnUse" style="mask-type:alpha"><path fill="#FAE600" d="M16.5 9.87311C17.5355 9.87311 18.375 9.03364 18.375 7.99811C18.375 6.96257 17.5355 6.12311 16.5 6.12311C15.4645 6.12311 14.625 6.96257 14.625 7.99811C14.625 9.03364 15.4645 9.87311 16.5 9.87311Z"/></mask><g mask="url(#mask0_13761_68383)"><path fill="#FAE600" d="M16.5 9.87311C17.5355 9.87311 18.375 9.03364 18.375 7.99811C18.375 6.96257 17.5355 6.12311 16.5 6.12311C15.4645 6.12311 14.625 6.96257 14.625 7.99811C14.625 9.03364 15.4645 9.87311 16.5 9.87311Z"/><path stroke="#000" stroke-width=".094" d="M16.5 6.12311V9.71006"/><circle cx="16.5" cy="7.101" r=".326" fill="#000"/><path stroke="#000" stroke-width=".094" d="M16.125 7.61493H16.875"/><ellipse cx="16.5" cy="7.965" fill="#000" rx=".326" ry=".163"/><path stroke="#000" stroke-width=".094" d="M16.125 8.31604H16.875"/><circle cx=".326" cy=".326" r=".326" fill="#000" transform="matrix(1 0 0 -1 16.1738 9.1557)"/><path fill="#000" d="M15.6851 9.8731L15.9143 9.52918C15.9748 9.43846 16.0766 9.38397 16.1857 9.38397H16.8149C16.9239 9.38397 17.0257 9.43846 17.0862 9.52918L17.3155 9.8731H15.6851Z"/></g><g clip-path="url(#clip0_13761_68383)"><path fill="#F0F0F0" d="M12 3.99878H0V11.9975H12V3.99878Z"/><path fill="#0052B4" d="M4.00125 3.99878H0V11.9975H4.00125V3.99878Z"/><path fill="#D80027" d="M12.0003 3.99878H7.99902V11.9975H12.0003V3.99878Z"/></g><defs><clipPath id="clip0_13761_68383"><rect width="12" height="12" fill="#fff" transform="translate(0 2)"/></clipPath></defs></svg>