<svg xmlns="http://www.w3.org/2000/svg" width="114" height="144" fill="none" viewBox="0 0 114 144"><g filter="url(#filter0_ddd_17852_9667)"><rect width="84" height="120" x="12" y="12" fill="#fff" rx="4"/><path fill="url(#paint0_radial_17852_9667)" d="M22.0024 25.9007V27.9783H23.459V25.9906C23.459 25.7972 23.5357 25.6117 23.6723 25.475C23.8089 25.3382 23.9941 25.2614 24.1873 25.2614H25.6808C26.3775 25.2612 27.0456 24.984 27.5382 24.4907C28.0308 23.9974 28.3075 23.3284 28.3076 22.6308C28.3076 21.9331 28.0308 21.264 27.5381 20.7707C27.0454 20.2773 26.3772 20.0001 25.6804 20H22.0024V22.597H23.459V21.3726H25.5822C25.9119 21.3726 26.228 21.5037 26.4612 21.7371C26.6943 21.9704 26.8254 22.287 26.8255 22.617C26.8255 22.9472 26.6945 23.2638 26.4613 23.4972C26.2282 23.7307 25.9119 23.8618 25.5822 23.8618H24.0386C23.7712 23.8617 23.5063 23.9143 23.2592 24.0167C23.0121 24.1192 22.7876 24.2693 22.5985 24.4587C22.4094 24.6481 22.2594 24.8729 22.1571 25.1203C22.0548 25.3677 22.0023 25.6329 22.0024 25.9007Z"/><path fill="url(#paint1_linear_17852_9667)" d="M24.1869 25.2617C23.6076 25.2618 23.052 25.4922 22.6423 25.9024C22.2327 26.3125 22.0025 26.8688 22.0024 27.4488V27.9786H23.459V25.9909C23.459 25.7976 23.5357 25.6122 23.6722 25.4754C23.8087 25.3387 23.9938 25.2618 24.1869 25.2617Z"/><rect width="16" height="2" x="72" y="23" fill="#6D4AFF" fill-opacity=".5" rx="1"/><rect width="68" height="35" x="20" y="36" fill="#6D4AFF" fill-opacity=".06" rx="4"/><rect width="67" height="34" x="20.5" y="36.5" stroke="#6D4AFF" stroke-opacity=".33" rx="3.5"/><circle cx="25" cy="41" r="1" fill="#15006F"/><circle cx="29" cy="41" r="1" fill="#15006F"/><circle cx="33" cy="41" r="1" fill="#15006F"/><circle cx="37" cy="41" r="1" fill="#15006F"/><circle cx="45" cy="41" r="1" fill="#15006F"/><circle cx="49" cy="41" r="1" fill="#15006F"/><circle cx="53" cy="41" r="1" fill="#15006F"/><circle cx="57" cy="41" r="1" fill="#15006F"/><circle cx="61" cy="41" r="1" fill="#15006F"/><circle cx="65" cy="41" r="1" fill="#15006F"/><circle cx="69" cy="41" r="1" fill="#15006F"/><circle cx="25" cy="46" r="1" fill="#15006F"/><circle cx="29" cy="46" r="1" fill="#15006F"/><circle cx="33" cy="46" r="1" fill="#15006F"/><circle cx="41" cy="46" r="1" fill="#15006F"/><circle cx="45" cy="46" r="1" fill="#15006F"/><circle cx="49" cy="46" r="1" fill="#15006F"/><circle cx="53" cy="46" r="1" fill="#15006F"/><circle cx="57" cy="46" r="1" fill="#15006F"/><circle cx="61" cy="46" r="1" fill="#15006F"/><circle cx="25" cy="51" r="1" fill="#15006F"/><circle cx="29" cy="51" r="1" fill="#15006F"/><circle cx="33" cy="51" r="1" fill="#15006F"/><circle cx="37" cy="51" r="1" fill="#15006F"/><circle cx="41" cy="51" r="1" fill="#15006F"/><circle cx="45" cy="51" r="1" fill="#15006F"/><circle cx="53" cy="51" r="1" fill="#15006F"/><circle cx="57" cy="51" r="1" fill="#15006F"/><circle cx="61" cy="51" r="1" fill="#15006F"/><circle cx="65" cy="51" r="1" fill="#15006F"/><circle cx="25" cy="56" r="1" fill="#15006F"/><circle cx="29" cy="56" r="1" fill="#15006F"/><circle cx="33" cy="56" r="1" fill="#15006F"/><circle cx="37" cy="56" r="1" fill="#15006F"/><circle cx="45" cy="56" r="1" fill="#15006F"/><circle cx="49" cy="56" r="1" fill="#15006F"/><circle cx="53" cy="56" r="1" fill="#15006F"/><circle cx="57" cy="56" r="1" fill="#15006F"/><circle cx="61" cy="56" r="1" fill="#15006F"/><circle cx="65" cy="56" r="1" fill="#15006F"/><circle cx="25" cy="61" r="1" fill="#15006F"/><circle cx="29" cy="61" r="1" fill="#15006F"/><circle cx="33" cy="61" r="1" fill="#15006F"/><circle cx="37" cy="61" r="1" fill="#15006F"/><circle cx="45" cy="61" r="1" fill="#15006F"/><circle cx="49" cy="61" r="1" fill="#15006F"/><circle cx="53" cy="61" r="1" fill="#15006F"/><circle cx="57" cy="61" r="1" fill="#15006F"/><circle cx="61" cy="61" r="1" fill="#15006F"/><circle cx="65" cy="61" r="1" fill="#15006F"/><circle cx="69" cy="61" r="1" fill="#15006F"/><circle cx="25" cy="66" r="1" fill="#15006F"/><circle cx="29" cy="66" r="1" fill="#15006F"/><circle cx="33" cy="66" r="1" fill="#15006F"/><circle cx="37" cy="66" r="1" fill="#15006F"/><circle cx="41" cy="66" r="1" fill="#15006F"/><circle cx="49" cy="66" r="1" fill="#15006F"/><circle cx="53" cy="66" r="1" fill="#15006F"/><circle cx="57" cy="66" r="1" fill="#15006F"/><circle cx="61" cy="66" r="1" fill="#15006F"/><rect width="68" height="8" x="20" y="75" fill="#6D4AFF" fill-opacity=".06" rx="4"/><rect width="67" height="7" x="20.5" y="75.5" stroke="#6D4AFF" stroke-opacity=".33" rx="3.5"/><rect width="22.44" height="2" x="20" y="87" fill="#6D4AFF" fill-opacity=".25" rx="1"/><rect width="68" height="2" x="20" y="91" fill="#6D4AFF" fill-opacity=".25" rx="1"/><rect width="51" height="2" x="20" y="95" fill="#6D4AFF" fill-opacity=".25" rx="1"/><rect width="68" height="14" x="20" y="101" fill="#F5385A" fill-opacity=".06" rx="4"/><rect width="67" height="13" x="20.5" y="101.5" stroke="#F5385A" stroke-opacity=".33" rx="3.5"/><rect width="31" height="2" x="24" y="105" fill="#F5385A" fill-opacity=".33" rx="1"/><rect width="60" height="2" x="24" y="109" fill="#F5385A" fill-opacity=".33" rx="1"/><rect width="31" height="2" x="20" y="119" fill="#6D4AFF" fill-opacity=".25" rx="1"/></g><defs><filter id="filter0_ddd_17852_9667" width="118.095" height="161.095" x="-5.048" y=".055" color-interpolation-filters="sRGB" filterUnits="userSpaceOnUse"><feFlood flood-opacity="0" result="BackgroundImageFix"/><feColorMatrix in="SourceAlpha" result="hardAlpha" type="matrix" values="0 0 0 0 0 0 0 0 0 0 0 0 0 0 0 0 0 0 127 0"/><feOffset dy=".415"/><feGaussianBlur stdDeviation=".695"/><feColorMatrix type="matrix" values="0 0 0 0 0.290196 0 0 0 0 0.176471 0 0 0 0 0.772549 0 0 0 0.0431852 0"/><feBlend in2="BackgroundImageFix" mode="normal" result="effect1_dropShadow_17852_9667"/><feColorMatrix in="SourceAlpha" result="hardAlpha" type="matrix" values="0 0 0 0 0 0 0 0 0 0 0 0 0 0 0 0 0 0 127 0"/><feOffset dy="1.965"/><feGaussianBlur stdDeviation="2.715"/><feColorMatrix type="matrix" values="0 0 0 0 0.290196 0 0 0 0 0.176471 0 0 0 0 0.772549 0 0 0 0.0668148 0"/><feBlend in2="effect1_dropShadow_17852_9667" mode="normal" result="effect2_dropShadow_17852_9667"/><feColorMatrix in="SourceAlpha" result="hardAlpha" type="matrix" values="0 0 0 0 0 0 0 0 0 0 0 0 0 0 0 0 0 0 127 0"/><feOffset dy="5.103"/><feGaussianBlur stdDeviation="8.524"/><feColorMatrix type="matrix" values="0 0 0 0 0.290196 0 0 0 0 0.176471 0 0 0 0 0.772549 0 0 0 0.11 0"/><feBlend in2="effect2_dropShadow_17852_9667" mode="normal" result="effect3_dropShadow_17852_9667"/><feBlend in="SourceGraphic" in2="effect3_dropShadow_17852_9667" mode="normal" result="shape"/></filter><radialGradient id="paint0_radial_17852_9667" cx="0" cy="0" r="1" gradientTransform="translate(28.3305 18.8923) scale(8.02049 8.03027)" gradientUnits="userSpaceOnUse"><stop stop-color="#A995FF"/><stop offset="1" stop-color="#6652F5"/></radialGradient><linearGradient id="paint1_linear_17852_9667" x1="23.095" x2="23.095" y1="27.586" y2="24.533" gradientUnits="userSpaceOnUse"><stop stop-color="#6D4BFD"/><stop offset="1" stop-color="#1C0554"/></linearGradient></defs></svg>